<svg width="520" height="360" viewBox="0 0 520 360" fill="none" xmlns="http://www.w3.org/2000/svg">
  <rect width="520" height="360" rx="28" fill="#F7F2EB"/>
  <rect x="80" y="70" width="160" height="220" rx="22" fill="#172026"/>
  <rect x="112" y="108" width="96" height="18" rx="9" fill="#FFFFFF"/>
  <rect x="112" y="154" width="78" height="11" rx="5.5" fill="#8DA1B5"/>
  <rect x="112" y="188" width="98" height="11" rx="5.5" fill="#8DA1B5"/>
  <rect x="112" y="222" width="68" height="11" rx="5.5" fill="#2DD4BF"/>
  <rect x="306" y="72" width="120" height="58" rx="16" fill="#E6F4F1" stroke="#B8DDD6"/>
  <text x="335" y="108" fill="#167B79" font-family="Inter, Arial, sans-serif" font-size="18" font-weight="900">JWT</text>
  <rect x="306" y="154" width="120" height="58" rx="16" fill="#FFF1DC" stroke="#E2C49D"/>
  <text x="328" y="190" fill="#C7792D" font-family="Inter, Arial, sans-serif" font-size="18" font-weight="900">PAY</text>
  <rect x="306" y="236" width="120" height="58" rx="16" fill="#EAF4FF" stroke="#BBD2EC"/>
  <text x="325" y="272" fill="#315F8E" font-family="Inter, Arial, sans-serif" font-size="18" font-weight="900">DOCS</text>
  <path d="M240 101H306M240 183H306M240 265H306" stroke="#167B79" stroke-width="6" stroke-linecap="round"/>
  <text x="86" y="330" fill="#172026" font-family="Inter, Arial, sans-serif" font-size="24" font-weight="900">Backend systems</text>
</svg>
